<?xml version="1.0" encoding="UTF-8"?>
<svg width="512" height="512" version="1.1" viewBox="0 0 512 512" xml:space="preserve" xmlns="http://www.w3.org/2000/svg" xmlns:cc="http://creativecommons.org/ns#" xmlns:dc="http://purl.org/dc/elements/1.1/" xmlns:rdf="http://www.w3.org/1999/02/22-rdf-syntax-ns#"><metadata><rdf:RDF><cc:Work rdf:about=""><dc:format>image/svg+xml</dc:format><dc:type rdf:resource="http://purl.org/dc/dcmitype/StillImage"/><dc:title/></cc:Work></rdf:RDF></metadata><g transform="matrix(1.3333 0 0 -1.3333 0 3779.8)"><g transform="scale(.1)"><path d="m1819.3 24978h216.2l-108.09-181.6-108.11 181.6" fill-rule="evenodd"/><g transform="matrix(.20045 0 0 .20045 -744.36 23772)"><path d="m14880 14658c946.4-1346.7 1419.7-2979.4 1227.1-4823-243-2325.5-2785.9-4027.2-2785.9-4027.2s-2615.9 1896.1-2786 4027.2c-147.4 1847.2 308.5 3477.9 1239.4 4823h3105.4" fill="#ffc712" fill-rule="evenodd"/></g><g transform="matrix(.20382 0 0 .20382 -744.36 23772)"><path d="m14850 14567c966-1374.5 1450-3040.8 1253.4-4922.5-250-2393.3-2855.7-4152.7-2855.7-4152.7-91.9-61.54-212.5-59.28-302.1 5.66 0 0-955 691.59-1755.9 1711.8-549.3 699.7-1021.3 1552.7-1092.2 2441.7-150.27 1882.5 316.3 3543.8 1265 4914.5 49.3 71.4 130.6 114 217.3 114h3053.9c86.1 0 166.8-42 216.3-112.4zm-355.2-416.3h-2774.8c-830.1-1252.6-1231.1-2758.8-1095.6-4457.7 62.9-787.63 494.4-1537.3 981.1-2157.2 566.7-721.84 1215.1-1269.1 1501.3-1495.8 531.8 392.95 2278 1813.8 2470.8 3659.5 176.9 1693.4-239.1 3199-1082.8 4451.3" fill-rule="evenodd"/></g><g transform="matrix(.23687 0 0 .23687 -744.36 23772)"><path d="m11279 16297c1378.3 2.9 1837.3-862.8 1837.3-1925.4 0-1062.7-823.3-1925.4-1837.3-1925.4s-1837.2 862.7-1837.2 1925.4c0 1062.6 488.89 1922.5 1837.2 1925.4" fill-rule="evenodd"/></g><g transform="matrix(.22077 0 0 .22077 -744.36 23772)"><path d="m6426 11194c-1387 172.4-2622.9 1310.8-2571.6 2546.2 48.59 1170 1398.2 2113.8 2644.8 2270.1 2308.7 289.5 4172.1-872.6 5553.4-2490.3h4.5c-0.7-1-1.5-1.9-2.3-2.8 0.8-0.9 1.5-1.9 2.2-2.8h-4.4c-1399.6-1526-3317.6-2607.3-5626.6-2320.4" fill="#ebebeb" fill-rule="evenodd"/></g><g transform="matrix(.22417 0 0 .22417 -744.36 23772)"><path d="m12028 13499c26.8-22.4 48.9-50.8 64.1-83.8 15.8-34.1 23-70.8 22-107-0.1-36.3-8.4-72.7-25.2-106.4-16.4-32.8-39.7-60.7-67.6-82.4-1426.7-1543.6-3379-2625.2-5722.6-2333.9-1490.3 185.2-2798.1 1428.5-2743 2756 21.52 518.1 267.89 998.7 650.83 1396.9 547.34 569.2 1375 968.3 2164 1067.2 2346.6 294.2 4247.8-867.9 5657.5-2506.6zm-480.2-181.3c-1293.4 1449.5-3006.7 2475.6-5117.5 2211-684.14-85.8-1402.7-429.9-1877.3-923.4-298.36-310.3-500.27-680.1-517.04-1083.8-45.93-1106 1080.4-2104.7 2322-2259 2112-262.5 3876.1 689.1 5189.8 2055.2" fill-rule="evenodd"/></g><g transform="matrix(.19431 0 0 .19431 -744.36 23772)"><path d="m10062 11222c-1190.5-413.1-2643.5 15.2-3094.1 1034.9-426.73 965.6 288.79 2266.6 1234.7 2889.5 1751.9 1153.8 3721.9 956.2 5483.5 198.1l3.6 1.7c-0.2-1-0.5-2-0.7-3.1 0.9-0.5 1.9-0.9 2.9-1.4l-3.7-1.7c-524-1791.8-1644.5-3430.3-3626.2-4118" fill="#ebebeb" fill-rule="evenodd"/></g><g transform="matrix(.19763 0 0 .19763 -744.36 23772)"><path d="m13528 15351c36.8-9.6 71.8-27 102.5-51.8 33-26.8 58.6-60.2 75.8-97.4 17.9-36.8 27.5-77.8 27.3-120.3-0.2-39.9-9.1-78.4-25.3-113.3-543.6-1828.8-1701.6-3490.5-3726.7-4193.2-1304.7-452.8-2886.8 47.3-3380.7 1164.8-194.08 439.1-187.37 939.2-32.21 1426.6 219.32 688.9 737.49 1351.7 1345.5 1752.2 1793.3 1181 3807.9 1000.9 5613.8 232.4zm-403.3-423.5c-1591.1 632.6-3344.2 767.4-4910.6-264.3-507.94-334.5-942.68-886.7-1125.9-1462.2-113.18-355.5-130.2-720.5 11.37-1040.8 392.26-887.6 1667.1-1229.8 2703.3-870.2 1773 615.3 2804.2 2048.1 3321.8 3637.5" fill-rule="evenodd"/></g><g transform="matrix(.27631 0 0 .27631 -744.36 23772)"><path d="m14204 8944c1108.2 137.71 2095.7 1047.3 2054.7 2034.4-38.8 934.8-1117.1 1688.9-2113.1 1813.8-1844.7 231.3-3333.4-697.2-4437.1-1989.7l-3.58-0.1c0.61-0.7 1.22-1.4 1.82-2.2-0.59-0.7-1.17-1.5-1.75-2.2h3.57c1118.2-1219.3 2650.7-2083.2 4495.5-1854" fill="#ebebeb" fill-rule="evenodd"/></g><g transform="matrix(.27968 0 0 .27968 -744.36 23772)"><path d="m9464.8 10820c1130 1313.5 2653.8 2244.9 4534.8 2009.1 632.4-79.3 1295.8-399.1 1734.5-855.4 307-319.2 504.5-704.4 521.7-1119.7 44.2-1064-1004.1-2060.6-2198.6-2209.1-1878.6-233.43-3443.4 633.5-4587 1870.8-22.35 17.3-41 39.7-54.13 66.1-13.47 27-20.14 56.2-20.25 85.2-0.77 29.1 5.01 58.4 17.65 85.8 12.18 26.4 29.89 49.2 51.39 67.1zm384.91-145.3c1053-1095.1 2467-1857.8 4159.9-1647.4 995.2 123.67 1898 924.23 1861.2 1810.7-13.5 323.6-175.3 620-414.5 868.7-380.4 395.6-956.4 671.4-1504.7 740.1-1691.9 212.2-3065.2-610.3-4101.9-1772.1" fill-rule="evenodd"/></g><g transform="matrix(.24984 0 0 .24984 -744.36 23772)"><path d="m13562 8727.3c925.8-321.29 2055.9 11.87 2406.3 804.86 331.9 750.97-224.6 1762.8-960.2 2247.3-1362.5 897.3-2894.5 743.6-4264.6 154l-2.8 1.3 0.6-2.4c-0.8-0.4-1.5-0.7-2.3-1.1l2.9-1.3c407.5-1393.5 1278.9-2667.8 2820.1-3202.6" fill="#ebebeb" fill-rule="evenodd"/></g><g transform="matrix(.25013 0 0 .25013 -744.36 23772)"><path d="m10533 12011c13.6 29.3 33.8 55.8 59.9 76.9 24.2 19.6 51.9 33.4 81 41 1426.9 607.1 3018.6 749.5 4435.5-183.7 480.4-316.4 889.8-840 1063.1-1384.4 122.6-385.1 127.9-780.18-25.4-1127.2-390.3-882.97-1640.3-1278.1-2671.2-920.35-1600 555.28-2515 1868.2-2944.5 3313.1-12.8 27.6-19.8 58-20 89.5-0.1 33.6 7.5 66 21.6 95.1zm459.5-216.7c409-1255.9 1223.8-2387.9 2624.7-2874 818.7-284.12 1825.9-13.74 2135.8 687.52 111.9 253.09 98.5 541.42 9 822.32-144.7 454.8-488.2 891-889.5 1155.3-1237.7 815.1-2622.8 708.7-3880 208.9" fill-rule="evenodd"/></g><g transform="matrix(.20179 0 0 .20179 -744.36 23772)"><path d="m15916 10454c139.9 46.3 291.1-29.7 337.4-169.6s-29.7-291.02-169.6-337.31c-1854.6-613.81-3749.5-629.72-5687-0.47-140.1 45.51-216.9 196.28-171.4 336.38 45.5 140.2 196.2 217 336.4 171.5 1824.1-592.46 3608.1-578.39 5354.2-0.5" fill-rule="evenodd"/></g><g transform="matrix(.19573 0 0 .19573 -744.36 23772)"><path d="m15922 8795.4c146.6 39.82 298-46.88 337.8-193.49 39.8-146.6-46.9-297.95-193.5-337.76-1582.3-429.69-3192.9-437.76-4833.2 3.06-146.8 39.43-233.8 190.55-194.4 337.25 39.4 146.72 190.5 233.81 337.2 194.39 1542.9-414.65 3057.8-407.61 4546.1-3.45" fill-rule="evenodd"/></g><path d="m2046.9 25103c29.671 2.107 55.458-20.261 57.57-49.92 2.1113-29.662-20.264-55.453-49.916-57.561-88.07-6.259-176.55-5.876-265.51 1.273-29.633 2.381-51.764 28.378-49.388 58.018 2.394 29.639 28.389 51.769 58.022 49.386 83.489-6.71 166.56-7.074 249.22-1.196" fill-rule="evenodd"/><path d="m2249.4 26233c29.162 5.825 57.57-13.12 63.394-42.281 5.8248-29.162-13.12-57.569-42.282-63.395-225.64-45.071-454.2-46.41-685.82-1.979-29.2 5.599-48.37 33.855-42.753 63.055 5.5986 29.2 33.856 48.371 63.055 42.772 217.63-41.754 432.39-40.548 644.41 1.828" fill-rule="evenodd"/><g transform="matrix(.25498 0 0 .25498 -744.36 23772)"><path d="m10049 14765c68.6-94.3 47.8-226.6-46.5-295.2-94.32-68.6-226.58-47.8-295.19 46.5-356.27 489.6-777.39 954.9-1297.2 1383.2-90 74.2-102.86 207.4-28.71 297.4 74.16 90 207.43 102.9 297.43 28.7 548.97-452.3 993.88-943.6 1370.2-1460.6" fill-rule="evenodd"/></g><g transform="matrix(.265 0 0 .265 -744.36 23772)"><path d="m7931.8 16300c304.28 0 551.32-247 551.32-551.3s-247.04-551.4-551.32-551.4c-304.29 0-551.33 247.1-551.33 551.4s247.04 551.3 551.33 551.3" fill-rule="evenodd"/></g><g transform="matrix(.25498 0 0 .25498 -744.36 23772)"><path d="m11249 14516c-68.7-94.3-200.9-115.1-295.2-46.5s-115.2 200.9-46.5 295.2c376.2 517 821.1 1008.3 1370.1 1460.6 90 74.2 223.3 61.3 297.4-28.7 74.2-90 61.3-223.2-28.7-297.4-519.8-428.3-940.9-893.6-1297.1-1383.2" fill-rule="evenodd"/></g><g transform="matrix(.265 0 0 .265 -744.36 23772)"><path d="m12232 16300c-304.3 0-551.3-247-551.3-551.3s247-551.4 551.3-551.4 551.3 247.1 551.3 551.4-247 551.3-551.3 551.3" fill-rule="evenodd"/></g></g></g></svg>
